# xmcd CD database file
#
# Track frame offsets:
#	150
#	11474
#	23764
#	36146
#	47263
#	59029
#	69271
#	78326
#	93224
#	102889
#
# Disc length: 1507 seconds
#
# Revision: 1
# Processed by: cddbd v1.5.1PL2 Copyright (c) Steve Scherf et al.
# Submitted via: CDex 1.70beta2
#
DISCID=6c05e10a
DTITLE=Various Artist - Country Giants Volume 1
DYEAR=1900
DGENRE=Country
TTITLE0=Willie Nelson - Is There Something On Your Mind?
TTITLE1=Kenny Rogers - Reuben James
TTITLE2=Lynn Anderson - Stand By Your Man
TTITLE3=Ed Bruce - King Of The Road
TTITLE4=Roy Dursky - Three Hearts In A Tangle
TTITLE5=Waylon Jennings - Sally Was A Good Ol' Girl
TTITLE6=Frankie Laine - Rawhide
TTITLE7=Tex Ritter - I Dreamed Of A Hill Billy Heaven
TTITLE8=Merle Travis - Sixteen Tons
TTITLE9=Faron Young - Hello Walls
EXTD=Cheap Wal-Mart Compilation
EXTT0=
EXTT1=
EXTT2=
EXTT3=
EXTT4=
EXTT5=
EXTT6=
EXTT7=
EXTT8=
EXTT9=
PLAYORDER=
